<svg width="101" height="46" viewBox="0 0 101 46" fill="none" xmlns="http://www.w3.org/2000/svg">
<path fill-rule="evenodd" clip-rule="evenodd" d="M11.5 11.8C10.7375 11.8 10.0062 12.095 9.46707 12.6201C8.9279 13.1452 8.625 13.8574 8.625 14.6H14.375C14.375 13.8574 14.0721 13.1452 13.5329 12.6201C12.9938 12.095 12.2625 11.8 11.5 11.8ZM7.69638 10.4C8.70981 9.5292 10.0424 9 11.5 9C12.9576 9 14.2887 9.5292 15.3036 10.4H20.125C20.8875 10.4 21.6188 10.695 22.1579 11.2201C22.6971 11.7452 23 12.4574 23 13.2V34.2C23 34.9426 22.6971 35.6548 22.1579 36.1799C21.6188 36.705 20.8875 37 20.125 37H2.875C2.1125 37 1.38123 36.705 0.842068 36.1799C0.302901 35.6548 0 34.9426 0 34.2V13.2C0 12.4574 0.302901 11.7452 0.842068 11.2201C1.38123 10.695 2.1125 10.4 2.875 10.4H7.69638ZM5.93113 13.2H2.875V34.2H20.125V13.2H17.0689C17.1867 13.648 17.25 14.117 17.25 14.6V16C17.25 16.3713 17.0985 16.7274 16.829 16.9899C16.5594 17.2525 16.1937 17.4 15.8125 17.4H7.1875C6.80625 17.4 6.44062 17.2525 6.17103 16.9899C5.90145 16.7274 5.75 16.3713 5.75 16V14.6C5.75 14.117 5.81325 13.648 5.93113 13.2ZM5.75 21.6C5.75 21.2287 5.90145 20.8726 6.17103 20.6101C6.44062 20.3475 6.80625 20.2 7.1875 20.2H15.8125C16.1937 20.2 16.5594 20.3475 16.829 20.6101C17.0985 20.8726 17.25 21.2287 17.25 21.6C17.25 21.9713 17.0985 22.3274 16.829 22.5899C16.5594 22.8525 16.1937 23 15.8125 23H7.1875C6.80625 23 6.44062 22.8525 6.17103 22.5899C5.90145 22.3274 5.75 21.9713 5.75 21.6ZM5.75 27.2C5.75 26.8287 5.90145 26.4726 6.17103 26.2101C6.44062 25.9475 6.80625 25.8 7.1875 25.8H11.5C11.8812 25.8 12.2469 25.9475 12.5165 26.2101C12.786 26.4726 12.9375 26.8287 12.9375 27.2C12.9375 27.5713 12.786 27.9274 12.5165 28.1899C12.2469 28.4525 11.8812 28.6 11.5 28.6H7.1875C6.80625 28.6 6.44062 28.4525 6.17103 28.1899C5.90145 27.9274 5.75 27.5713 5.75 27.2Z" fill="url(#paint0_linear_10_110)"/>
<path d="M41.19 29.15V33.5H38.58C36.72 33.5 35.27 33.05 34.23 32.15C33.19 31.23 32.67 29.74 32.67 27.68V21.02H30.63V16.76H32.67V12.68H37.8V16.76H41.16V21.02H37.8V27.74C37.8 28.24 37.92 28.6 38.16 28.82C38.4 29.04 38.8 29.15 39.36 29.15H41.19ZM51.6675 33.74C50.0275 33.74 48.5475 33.39 47.2275 32.69C45.9275 31.99 44.8975 30.99 44.1375 29.69C43.3975 28.39 43.0275 26.87 43.0275 25.13C43.0275 23.41 43.4075 21.9 44.1675 20.6C44.9275 19.28 45.9675 18.27 47.2875 17.57C48.6075 16.87 50.0875 16.52 51.7275 16.52C53.3675 16.52 54.8475 16.87 56.1675 17.57C57.4875 18.27 58.5275 19.28 59.2875 20.6C60.0475 21.9 60.4275 23.41 60.4275 25.13C60.4275 26.85 60.0375 28.37 59.2575 29.69C58.4975 30.99 57.4475 31.99 56.1075 32.69C54.7875 33.39 53.3075 33.74 51.6675 33.74ZM51.6675 29.3C52.6475 29.3 53.4775 28.94 54.1575 28.22C54.8575 27.5 55.2075 26.47 55.2075 25.13C55.2075 23.79 54.8675 22.76 54.1875 22.04C53.5275 21.32 52.7075 20.96 51.7275 20.96C50.7275 20.96 49.8975 21.32 49.2375 22.04C48.5775 22.74 48.2475 23.77 48.2475 25.13C48.2475 26.47 48.5675 27.5 49.2075 28.22C49.8675 28.94 50.6875 29.3 51.6675 29.3ZM62.1291 25.1C62.1291 23.38 62.4491 21.87 63.0891 20.57C63.7491 19.27 64.6391 18.27 65.7591 17.57C66.8791 16.87 68.1291 16.52 69.5091 16.52C70.6091 16.52 71.6091 16.75 72.5091 17.21C73.4291 17.67 74.1491 18.29 74.6691 19.07V11.3H79.7991V33.5H74.6691V31.1C74.1891 31.9 73.4991 32.54 72.5991 33.02C71.7191 33.5 70.6891 33.74 69.5091 33.74C68.1291 33.74 66.8791 33.39 65.7591 32.69C64.6391 31.97 63.7491 30.96 63.0891 29.66C62.4491 28.34 62.1291 26.82 62.1291 25.1ZM74.6691 25.13C74.6691 23.85 74.3091 22.84 73.5891 22.1C72.8891 21.36 72.0291 20.99 71.0091 20.99C69.9891 20.99 69.1191 21.36 68.3991 22.1C67.6991 22.82 67.3491 23.82 67.3491 25.1C67.3491 26.38 67.6991 27.4 68.3991 28.16C69.1191 28.9 69.9891 29.27 71.0091 29.27C72.0291 29.27 72.8891 28.9 73.5891 28.16C74.3091 27.42 74.6691 26.41 74.6691 25.13ZM91.1304 33.74C89.4904 33.74 88.0104 33.39 86.6904 32.69C85.3904 31.99 84.3604 30.99 83.6004 29.69C82.8604 28.39 82.4904 26.87 82.4904 25.13C82.4904 23.41 82.8704 21.9 83.6304 20.6C84.3904 19.28 85.4304 18.27 86.7504 17.57C88.0704 16.87 89.5504 16.52 91.1904 16.52C92.8304 16.52 94.3104 16.87 95.6304 17.57C96.9504 18.27 97.9904 19.28 98.7504 20.6C99.5104 21.9 99.8904 23.41 99.8904 25.13C99.8904 26.85 99.5004 28.37 98.7204 29.69C97.9604 30.99 96.9104 31.99 95.5704 32.69C94.2504 33.39 92.7704 33.74 91.1304 33.74ZM91.1304 29.3C92.1104 29.3 92.9404 28.94 93.6204 28.22C94.3204 27.5 94.6704 26.47 94.6704 25.13C94.6704 23.79 94.3304 22.76 93.6504 22.04C92.9904 21.32 92.1704 20.96 91.1904 20.96C90.1904 20.96 89.3604 21.32 88.7004 22.04C88.0404 22.74 87.7104 23.77 87.7104 25.13C87.7104 26.47 88.0304 27.5 88.6704 28.22C89.3304 28.94 90.1504 29.3 91.1304 29.3Z" fill="url(#paint1_linear_10_110)"/>
<defs>
<linearGradient id="paint0_linear_10_110" x1="11.5" y1="9" x2="11.5" y2="37" gradientUnits="userSpaceOnUse">
<stop stop-color="#864AF9"/>
<stop offset="1" stop-color="#3B34B6"/>
</linearGradient>
<linearGradient id="paint1_linear_10_110" x1="65.039" y1="16" x2="56.4664" y2="45.1483" gradientUnits="userSpaceOnUse">
<stop stop-color="#864AF9"/>
<stop offset="1" stop-color="#3B34B6"/>
</linearGradient>
</defs>
</svg>
