<svg width="55" height="51" viewBox="0 0 55 51" fill="none" xmlns="http://www.w3.org/2000/svg">
<path d="M14.4512 0.880005L6.96875 8.26675L4.04875 5.38675L0.76375 8.62001L5.32625 13.12L6.96875 14.6635L8.61125 13.1178L17.7362 4.11775L14.4512 0.880005ZM25.2187 4.75V9.25H54.875V4.75H25.2187ZM14.4512 18.88L6.96875 26.269L4.04875 23.38L0.76375 26.62L5.32625 31.12L6.96875 32.6635L8.61125 31.1178L17.7362 22.1178L14.4512 18.88ZM25.2187 22.75V27.25H54.875V22.75H25.2187ZM14.4512 36.88L6.96875 44.2668L4.04875 41.3868L0.76375 44.62L5.32625 49.12L6.96875 50.6635L8.61125 49.1178L17.7362 40.1178L14.4512 36.8778V36.88ZM25.2187 40.75V45.25H54.875V40.75H25.2187Z" fill="#864AF9"/>
</svg>
