<svg width="23" height="28" viewBox="0 0 23 28" fill="none" xmlns="http://www.w3.org/2000/svg">
<path fill-rule="evenodd" clip-rule="evenodd" d="M11.5 2.8C10.7375 2.8 10.0062 3.095 9.46707 3.6201C8.9279 4.1452 8.625 4.85739 8.625 5.6H14.375C14.375 4.85739 14.0721 4.1452 13.5329 3.6201C12.9938 3.095 12.2625 2.8 11.5 2.8ZM7.69637 1.4C8.70981 0.5292 10.0424 0 11.5 0C12.9576 0 14.2887 0.5292 15.3036 1.4H20.125C20.8875 1.4 21.6188 1.695 22.1579 2.2201C22.6971 2.7452 23 3.45739 23 4.2V25.2C23 25.9426 22.6971 26.6548 22.1579 27.1799C21.6188 27.705 20.8875 28 20.125 28H2.875C2.1125 28 1.38123 27.705 0.842068 27.1799C0.302901 26.6548 0 25.9426 0 25.2V4.2C0 3.45739 0.302901 2.7452 0.842068 2.2201C1.38123 1.695 2.1125 1.4 2.875 1.4H7.69637ZM5.93113 4.2H2.875V25.2H20.125V4.2H17.0689C17.1867 4.648 17.25 5.117 17.25 5.6V7C17.25 7.3713 17.0985 7.7274 16.829 7.98995C16.5594 8.2525 16.1937 8.4 15.8125 8.4H7.1875C6.80625 8.4 6.44062 8.2525 6.17103 7.98995C5.90145 7.7274 5.75 7.3713 5.75 7V5.6C5.75 5.117 5.81325 4.648 5.93113 4.2ZM5.75 12.6C5.75 12.2287 5.90145 11.8726 6.17103 11.6101C6.44062 11.3475 6.80625 11.2 7.1875 11.2H15.8125C16.1937 11.2 16.5594 11.3475 16.829 11.6101C17.0985 11.8726 17.25 12.2287 17.25 12.6C17.25 12.9713 17.0985 13.3274 16.829 13.5899C16.5594 13.8525 16.1937 14 15.8125 14H7.1875C6.80625 14 6.44062 13.8525 6.17103 13.5899C5.90145 13.3274 5.75 12.9713 5.75 12.6ZM5.75 18.2C5.75 17.8287 5.90145 17.4726 6.17103 17.2101C6.44062 16.9475 6.80625 16.8 7.1875 16.8H11.5C11.8812 16.8 12.2469 16.9475 12.5165 17.2101C12.786 17.4726 12.9375 17.8287 12.9375 18.2C12.9375 18.5713 12.786 18.9274 12.5165 19.1899C12.2469 19.4525 11.8812 19.6 11.5 19.6H7.1875C6.80625 19.6 6.44062 19.4525 6.17103 19.1899C5.90145 18.9274 5.75 18.5713 5.75 18.2Z" fill="url(#paint0_linear_2_97)"/>
<defs>
<linearGradient id="paint0_linear_2_97" x1="11.5" y1="0" x2="11.5" y2="28" gradientUnits="userSpaceOnUse">
<stop stop-color="#864AF9"/>
<stop offset="1" stop-color="#3B34B6"/>
</linearGradient>
</defs>
</svg>
